<svg version="1.1" xmlns="http://www.w3.org/2000/svg" xmlns:xlink="http://www.w3.org/1999/xlink" width="681" height="406" viewBox="0,0,681,406"><g transform="translate(18.5,18.45)"><g stroke="none" stroke-miterlimit="10"><path d="M-18.5,387.55001v-406h681v406z" fill="#545454" stroke-width="none"/><text transform="translate(145.5,44.30001) scale(0.69502,0.69502)" font-size="40" xml:space="preserve" fill="#909090" stroke-width="1" font-family="&quot;Lemon Milk Pro Bold&quot;, Sans Serif" font-weight="normal" text-anchor="start"><tspan x="0" dy="0">Koffee's Exclusive Links</tspan></text><g stroke-width="0"><path d="M67.5,34.87858c0,-12.52109 10.15034,-22.67143 22.67143,-22.67143c12.52109,0 22.67143,10.15034 22.67143,22.67143c0,12.52109 -10.15034,22.67143 -22.67143,22.67143c-12.52108,0 -22.67143,-10.15034 -22.67143,-22.67143z" fill="#96ff65"/><path d="M91.15714,34.22143c0,-12.52108 10.15034,-22.67143 22.67143,-22.67143c12.52109,0 22.67143,10.15034 22.67143,22.67143c0,12.52109 -10.15034,22.67143 -22.67143,22.67143c-12.52109,0 -22.67143,-10.15034 -22.67143,-22.67143z" fill="#feff66"/><path d="M112.84286,33.56429c0,8.4094 -4.57854,15.74942 -11.37879,19.66325c-6.20512,-4.04503 -10.30692,-11.04656 -10.30692,-19.00611c0,-8.4094 4.57854,-15.74942 11.37879,-19.66325c6.20512,4.04503 10.30692,11.04656 10.30692,19.00611z" fill="#e1ff66"/></g></g></g></svg>