<svg version="1.1" xmlns="http://www.w3.org/2000/svg" xmlns:xlink="http://www.w3.org/1999/xlink" width="681" height="406" viewBox="0,0,681,406"><g transform="translate(18.5,18.44998)"><g stroke="none" stroke-miterlimit="10"><path d="M-18.5,387.55003v-406h681v406z" fill="#545454" stroke-width="NaN"/><g><text transform="translate(170.36059,43.17306) scale(0.64923,0.64923)" font-size="40" xml:space="preserve" fill="#909090" stroke-width="1" font-family="&quot;Lemon Milk Pro Bold&quot;, Sans Serif" font-weight="normal" text-anchor="start"><tspan x="0" dy="0">Koffee's Exclusive Links</tspan></text><g stroke-width="0"><path d="M97.5,34.3724c0,-11.69608 9.48154,-21.17761 21.17761,-21.17761c11.69608,0 21.17761,9.48154 21.17761,21.17761c0,11.69608 -9.48154,21.17761 -21.17761,21.17761c-11.69607,0 -21.17761,-9.48154 -21.17761,-21.17761z" fill="#96ff65"/><path d="M119.59837,33.75855c0,-11.69607 9.48154,-21.17761 21.17761,-21.17761c11.69608,0 21.17761,9.48154 21.17761,21.17761c0,11.69608 -9.48154,21.17761 -21.17761,21.17761c-11.69608,0 -21.17761,-9.48154 -21.17761,-21.17761z" fill="#feff66"/><path d="M139.85523,33.14471c0,7.85531 -4.27686,14.71169 -10.62904,18.36764c-5.79627,-3.7785 -9.6278,-10.3187 -9.6278,-17.7538c0,-7.85531 4.27686,-14.71169 10.62904,-18.36764c5.79627,3.7785 9.6278,10.3187 9.6278,17.7538z" fill="#e1ff66"/></g></g></g></g></svg>