<svg version="1.1" xmlns="http://www.w3.org/2000/svg" xmlns:xlink="http://www.w3.org/1999/xlink" width="681" height="406" viewBox="0,0,681,406"><g transform="translate(18.5,18.44998)"><g stroke="none" stroke-miterlimit="10"><path d="M-18.5,387.55003v-406h681v406z" fill="#545454" stroke-width="NaN"/><text transform="translate(122.32608,197.40329) scale(0.95188,0.95188)" font-size="40" xml:space="preserve" fill="#909090" stroke-width="1" font-family="&quot;Lemon Milk Pro Bold&quot;, Sans Serif" font-weight="normal" text-anchor="start"><tspan x="0" dy="0">Koffee's Exclusive Links</tspan></text><g stroke-width="0"><path d="M15.5,184.50001c0,-17.14845 13.90155,-31.05 31.05,-31.05c17.14845,0 31.05,13.90155 31.05,31.05c0,17.14845 -13.90155,31.05 -31.05,31.05c-17.14843,0 -31.05,-13.90155 -31.05,-31.05z" fill="#96ff65"/><path d="M47.89999,183.60002c0,-17.14843 13.90155,-31.05 31.05,-31.05c17.14845,0 31.05,13.90155 31.05,31.05c0,17.14845 -13.90155,31.05 -31.05,31.05c-17.14845,0 -31.05,-13.90155 -31.05,-31.05z" fill="#feff66"/><path d="M77.6,182.70001c0,11.51722 -6.27061,21.56986 -15.58399,26.9301c-8.49832,-5.53993 -14.116,-15.12898 -14.116,-26.03011c0,-11.51722 6.27061,-21.56986 15.58399,-26.9301c8.49832,5.53993 14.116,15.12898 14.116,26.03011z" fill="#e1ff66"/></g></g></g></svg>