<svg version="1.1" xmlns="http://www.w3.org/2000/svg" xmlns:xlink="http://www.w3.org/1999/xlink" width="94.49999" height="63" viewBox="0,0,94.49999,63"><g transform="translate(-272.75,-148.5)"><g stroke="none" stroke-width="0" stroke-miterlimit="10"><g><path d="M272.75001,180.45c0,-17.14845 13.90155,-31.05 31.05,-31.05c17.14845,0 31.05,13.90155 31.05,31.05c0,17.14845 -13.90155,31.05 -31.05,31.05c-17.14843,0 -31.05,-13.90155 -31.05,-31.05z" fill="#96ff65"/><path d="M305.15,179.55c0,-17.14843 13.90155,-31.05 31.05,-31.05c17.14845,0 31.05,13.90155 31.05,31.05c0,17.14845 -13.90155,31.05 -31.05,31.05c-17.14845,0 -31.05,-13.90155 -31.05,-31.05z" fill="#feff66"/><path d="M334.85001,178.65c0,11.51722 -6.27061,21.56986 -15.58399,26.9301c-8.49832,-5.53993 -14.116,-15.12898 -14.116,-26.03011c0,-11.51722 6.27061,-21.56986 15.58399,-26.9301c8.49832,5.53993 14.116,15.12898 14.116,26.03011z" fill="#e1ff66"/></g></g></g></svg>